<svg id="eiekT6ZSUYX1" xmlns="http://www.w3.org/2000/svg" xmlns:xlink="http://www.w3.org/1999/xlink" viewBox="0 0 100 100" shape-rendering="geometricPrecision" text-rendering="geometricPrecision"><g transform="matrix(.194473 0 0 0.194473 0.029171 0.001945)"><path d="M363.66,24.24L296.35,3.33c-13.46-2.19-27.27-3.34-41.35-3.34-98.13,0-158.57,55.35-158.74,55.44-3.79,17.48-10.37,42.85-10.37,61.47c0,76.66,35.2,145.41,89.99,192.15h328.37c.515-2.42,5.76-24.33,5.76-54.05c0-101.97-59.85-189.96-146.34-230.76h-.01Z" fill="#ecf4ff"/><path d="M186.49,309.05c-58.52-46.72-96.03-118.66-96.03-199.37c0-18.61,2.01-36.76,5.8-54.24-.6.01-.11.01-.17.01C37.45,102.17,-0.15,174.19,-0.15,255c0,18.55,2,36.63,5.76,54.05h180.88Z" fill="#ddeafb"/><path d="M303.93,419.09c121.14,2.72,182.08-70.2,200.27-109.85.021-.128.12-.561.27-1.26h-46.34l-61.31,14.78-23.31-14.78h-57.34l-81.21,90.63c.002,0,31.59,19.64,68.96,20.48h.01Z" fill="#afe6ff"/><path d="M429.26,350.58c-26.25,9.13-54.44,14.1-83.8,14.1-3.43,0-6.85-.068-10.25-.202-17.95-.71-35.43-3.28-52.24-7.51l-115.06-48.98h-162.38c.749,3.12,2.68,13,7.2,26.73c5.41,16.47,12.44,32.15,20.87,46.88l152.09,118.85c16.51,4.66,33.67,7.69,51.29,8.93l214.28-91.49c25.56-30.75,44.09-67.73,52.95-108.63-22.25,17.72-47.53,31.81-74.94,41.34l-.01-.018Z" fill="#73c8f0"/><path d="M316.18,307.98h-148.27L78.84,439.34c29.95,28.64,66.42,49.71,106.84,61.11l130.5-192.47Z" fill="#b8e7ff"/><path d="M373.52,307.98L236.97,509.36c5.96.416,11.97.636,18.03.636c25.48,0,50.16-3.77,73.47-10.78l129.67-191.23-84.62-.006Z" fill="#b8e7ff"/><path d="M297.94,48.74L259.92,256.72l2.59,5.59l41.41-5.59L363.65,24.26c-12.84-6.06-26.26-11.07-40.16-14.94L297.94,48.74Z" fill="#699591"/><path d="M296.35,3.36L231.26,256.73l28.2,1.82L323.49,9.33c-8.86-2.46-17.92-4.46-27.14-5.96v-.01Z" fill="#dd542e"/><path d="M231.25,256.72l-13.17,51.26h72.67l13.17-51.26h-72.67Z" fill="#fff"/><path d="M223.11,288.43l-13.39,29.15c-7.53,16.39-23.27,27.48-41.24,29.06l-90.67,7.94v77.72l188.74-30.12l29.23-113.75h-72.67Z" fill="#50555a"/><path d="M140.03,413.26c-32.72,2.87-60.86-22.92-60.86-55.76c0-1.02.035-2.04.089-3.05l-2.6.228c-28.91,2.53-51.09,26.74-51.09,55.76c0,32.84,28.14,58.62,60.86,55.76l132.05-11.57c21.21-1.86,38.94-16.89,44.24-37.52l3.84-14.93L140.03,413.26Z" fill="#373c41"/><path d="M359.41,437.45v71.4c7.56.75,15.54,1.15,23.78,1.15c48.48,0,87.77-13.88,87.77-31v-41.55h-111.56.01Z" fill="#50555a"/><path d="M360.85,437.45h-65.44v41.55c0,14.4,27.78,26.5,65.44,29.99v-71.54Z" fill="#373c41"/><path d="M295.41,437.45c0-17.120827,39.300445-31,87.78-31s87.78,13.879173,87.78,31-39.300445,31-87.78,31-87.78-13.879173-87.78-31Z" fill="#696e73"/></g></svg>
