<svg id="e5MwhrXZGj41" xmlns="http://www.w3.org/2000/svg" xmlns:xlink="http://www.w3.org/1999/xlink" viewBox="0 0 512 140" shape-rendering="geometricPrecision" text-rendering="geometricPrecision"><g transform="matrix(.194473 0 0 0.194473 364.817 20.819264)"><path d="M363.66,24.24L296.35,3.33c-13.46-2.19-27.27-3.34-41.35-3.34-98.13,0-158.57,55.35-158.74,55.44-3.79,17.48-10.37,42.85-10.37,61.47c0,76.66,35.2,145.41,89.99,192.15h328.37c.515-2.42,5.76-24.33,5.76-54.05c0-101.97-59.85-189.96-146.34-230.76h-.01Z" fill="#ecf4ff"/><path d="M186.49,309.05c-58.52-46.72-96.03-118.66-96.03-199.37c0-18.61,2.01-36.76,5.8-54.24-.6.01-.11.01-.17.01C37.45,102.17,-0.15,174.19,-0.15,255c0,18.55,2,36.63,5.76,54.05h180.88Z" fill="#ddeafb"/><path d="M303.93,419.09c121.14,2.72,182.08-70.2,200.27-109.85.021-.128.12-.561.27-1.26h-46.34l-61.31,14.78-23.31-14.78h-57.34l-81.21,90.63c.002,0,31.59,19.64,68.96,20.48h.01Z" fill="#afe6ff"/><path d="M429.26,350.58c-26.25,9.13-54.44,14.1-83.8,14.1-3.43,0-6.85-.068-10.25-.202-17.95-.71-35.43-3.28-52.24-7.51l-115.06-48.98h-162.38c.749,3.12,2.68,13,7.2,26.73c5.41,16.47,12.44,32.15,20.87,46.88l152.09,118.85c16.51,4.66,33.67,7.69,51.29,8.93l214.28-91.49c25.56-30.75,44.09-67.73,52.95-108.63-22.25,17.72-47.53,31.81-74.94,41.34l-.01-.018Z" fill="#73c8f0"/><path d="M316.18,307.98h-148.27L78.84,439.34c29.95,28.64,66.42,49.71,106.84,61.11l130.5-192.47Z" fill="#b8e7ff"/><path d="M373.52,307.98L236.97,509.36c5.96.416,11.97.636,18.03.636c25.48,0,50.16-3.77,73.47-10.78l129.67-191.23-84.62-.006Z" fill="#b8e7ff"/><path d="M297.94,48.74L259.92,256.72l2.59,5.59l41.41-5.59L363.65,24.26c-12.84-6.06-26.26-11.07-40.16-14.94L297.94,48.74Z" fill="#699591"/><path d="M296.35,3.36L231.26,256.73l28.2,1.82L323.49,9.33c-8.86-2.46-17.92-4.46-27.14-5.96v-.01Z" fill="#dd542e"/><path d="M231.25,256.72l-13.17,51.26h72.67l13.17-51.26h-72.67Z" fill="#fff"/><path d="M223.11,288.43l-13.39,29.15c-7.53,16.39-23.27,27.48-41.24,29.06l-90.67,7.94v77.72l188.74-30.12l29.23-113.75h-72.67Z" fill="#50555a"/><path d="M140.03,413.26c-32.72,2.87-60.86-22.92-60.86-55.76c0-1.02.035-2.04.089-3.05l-2.6.228c-28.91,2.53-51.09,26.74-51.09,55.76c0,32.84,28.14,58.62,60.86,55.76l132.05-11.57c21.21-1.86,38.94-16.89,44.24-37.52l3.84-14.93L140.03,413.26Z" fill="#373c41"/><path d="M359.41,437.45v71.4c7.56.75,15.54,1.15,23.78,1.15c48.48,0,87.77-13.88,87.77-31v-41.55h-111.56.01Z" fill="#50555a"/><path d="M360.85,437.45h-65.44v41.55c0,14.4,27.78,26.5,65.44,29.99v-71.54Z" fill="#373c41"/><path d="M295.41,437.45c0-17.120827,39.300445-31,87.78-31s87.78,13.879173,87.78,31-39.300445,31-87.78,31-87.78-13.879173-87.78-31Z" fill="#696e73"/></g><g transform="matrix(.194473 0 0 0.194473 364.817 20.819264)"><path d="M363.66,24.24L296.35,3.33c-13.46-2.19-27.27-3.34-41.35-3.34-98.13,0-158.57,55.35-158.74,55.44-3.79,17.48-10.37,42.85-10.37,61.47c0,76.66,35.2,145.41,89.99,192.15h328.37c.515-2.42,5.76-24.33,5.76-54.05c0-101.97-59.85-189.96-146.34-230.76h-.01Z" fill="#ecf4ff"/><path d="M186.49,309.05c-58.52-46.72-96.03-118.66-96.03-199.37c0-18.61,2.01-36.76,5.8-54.24-.6.01-.11.01-.17.01C37.45,102.17,-0.15,174.19,-0.15,255c0,18.55,2,36.63,5.76,54.05h180.88Z" fill="#ddeafb"/><path d="M303.93,419.09c121.14,2.72,182.08-70.2,200.27-109.85.021-.128.12-.561.27-1.26h-46.34l-61.31,14.78-23.31-14.78h-57.34l-81.21,90.63c.002,0,31.59,19.64,68.96,20.48h.01Z" fill="#afe6ff"/><path d="M429.26,350.58c-26.25,9.13-54.44,14.1-83.8,14.1-3.43,0-6.85-.068-10.25-.202-17.95-.71-35.43-3.28-52.24-7.51l-115.06-48.98h-162.38c.749,3.12,2.68,13,7.2,26.73c5.41,16.47,12.44,32.15,20.87,46.88l152.09,118.85c16.51,4.66,33.67,7.69,51.29,8.93l214.28-91.49c25.56-30.75,44.09-67.73,52.95-108.63-22.25,17.72-47.53,31.81-74.94,41.34l-.01-.018Z" fill="#73c8f0"/><path d="M316.18,307.98h-148.27L78.84,439.34c29.95,28.64,66.42,49.71,106.84,61.11l130.5-192.47Z" fill="#b8e7ff"/><path d="M373.52,307.98L236.97,509.36c5.96.416,11.97.636,18.03.636c25.48,0,50.16-3.77,73.47-10.78l129.67-191.23-84.62-.006Z" fill="#b8e7ff"/><path d="M297.94,48.74L259.92,256.72l2.59,5.59l41.41-5.59L363.65,24.26c-12.84-6.06-26.26-11.07-40.16-14.94L297.94,48.74Z" fill="#699591"/><path d="M296.35,3.36L231.26,256.73l28.2,1.82L323.49,9.33c-8.86-2.46-17.92-4.46-27.14-5.96v-.01Z" fill="#dd542e"/><path d="M231.25,256.72l-13.17,51.26h72.67l13.17-51.26h-72.67Z" fill="#fff"/><path d="M223.11,288.43l-13.39,29.15c-7.53,16.39-23.27,27.48-41.24,29.06l-90.67,7.94v77.72l188.74-30.12l29.23-113.75h-72.67Z" fill="#50555a"/><path d="M140.03,413.26c-32.72,2.87-60.86-22.92-60.86-55.76c0-1.02.035-2.04.089-3.05l-2.6.228c-28.91,2.53-51.09,26.74-51.09,55.76c0,32.84,28.14,58.62,60.86,55.76l132.05-11.57c21.21-1.86,38.94-16.89,44.24-37.52l3.84-14.93L140.03,413.26Z" fill="#373c41"/><path d="M359.41,437.45v71.4c7.56.75,15.54,1.15,23.78,1.15c48.48,0,87.77-13.88,87.77-31v-41.55h-111.56.01Z" fill="#50555a"/><path d="M360.85,437.45h-65.44v41.55c0,14.4,27.78,26.5,65.44,29.99v-71.54Z" fill="#373c41"/><path d="M295.41,437.45c0-17.120827,39.300445-31,87.78-31s87.78,13.879173,87.78,31-39.300445,31-87.78,31-87.78-13.879173-87.78-31Z" fill="#696e73"/></g><path d="M-134.498,-29.57h-5.47q-1.01,0-1.01-.96v0-4.7q0-1.01,1.01-1.01v0h5.47q.43,0,.67.29t.24.72v0v4.7q0,.96-.91.96v0Zm.77,29.57h-7.1v-25.78h7.1v25.78Zm15.506.29v0q-2.35,0-4.35-.63-1.99-.62-3.43-2.08-1.44-1.47-2.23-3.99t-.79-6.36v0q0-3.93.72-6.53.72-2.59,2.13-4.1q1.42-1.51,3.48-2.14q2.07-.62,4.66-.62v0q2.35,0,4.49.26q2.13.27,4.49.94v0v4.08h-6.77q-2.21,0-3.55.65-1.35.65-1.95,2.4t-.6,5.01v0q0,3.22.6,4.9t1.97,2.26q1.37.57,3.62.57v0h7.06v4.03q-1.2.39-2.78.7-1.59.31-3.34.48t-3.43.17Zm24.33-.05v0q-4.27,0-6.81-1.13-2.55-1.13-3.67-4.01-1.13-2.88-1.13-7.96v0q0-5.24,1.05-8.12q1.06-2.88,3.56-4.03q2.49-1.15,6.76-1.15v0q3.84,0,6.15.77q2.3.77,3.33,2.69q1.04,1.92,1.04,5.42v0q0,2.59-1.04,4.1-1.03,1.52-2.9,2.16-1.87.65-4.42.65v0h-6.48q.1,1.97.6,3.15.51,1.17,1.88,1.68q1.36.5,3.96.5v0h7.53v4.18q-1.87.38-4.1.74t-5.31.36Zm-4.65-14.83v0h5.85q1.44,0,2.12-.58.67-.57.67-2.06v0q0-1.39-.43-2.23-.44-.84-1.35-1.2t-2.45-.36v0q-1.63,0-2.59.55t-1.39,1.94-.43,3.94ZM-70.516,0.29v0q-3.02,0-5.08-1.27-2.07-1.28-3.1-4.13-1.03-2.86-1.03-7.51v0q0-4.8.89-7.78.88-2.98,3-4.37q2.11-1.39,5.8-1.39v0q1.78,0,3.51.36t3.07.84v0-11.66h7.15v36.62h-6l-1.15-2.45q-.82.77-1.99,1.39-1.18.63-2.47.99-1.3.36-2.6.36Zm2.5-5.71v0q1.44,0,2.62-.48q1.17-.48,1.94-.96v0-12.96q-.96-.34-2.02-.68-1.05-.33-2.25-.33v0q-1.78,0-2.86.62-1.08.63-1.56,2.33t-.48,4.92v0q0,2.98.46,4.63.45,1.66,1.46,2.28q1.01.63,2.69.63Zm22.514,5.71v0q-2.93,0-4.75-1.73-1.83-1.73-1.83-4.8v0-2.3q0-2.93,2.07-4.83q2.06-1.89,6.43-1.89v0h6.57v-1.78q0-1.2-.43-1.99t-1.61-1.15q-1.17-.36-3.57-.36v0h-7.73v-4.13q1.87-.58,4.34-1.01q2.48-.43,5.98-.43v0q3.22,0,5.5.77q2.28.76,3.45,2.64q1.18,1.87,1.18,5.18v0v17.52h-5.62l-1.15-2.74q-.34.39-1.15.87-.82.48-1.99.98-1.18.51-2.64.84-1.47.34-3.05.34Zm3.6-4.95v0q.48,0,1.08-.12t1.25-.28q.64-.17,1.2-.34.55-.17.91-.31.36-.15.45-.19v0-6l-4.32.28q-1.87.15-2.76.96-.88.82-.88,2.21v0v1.06q0,.96.4,1.58.41.63,1.11.89.69.26,1.56.26Zm31.29,16.04h-5.9L-13.732,0q-2.16,0-3.79-.82-1.63-.81-2.71-2.32-1.08-1.52-1.66-3.77v0l-4.84-18.87h7.39l4.08,17.43q.24.91.62,1.44.39.53.82.74.43.22.79.29t.55.07v0l4.66-19.97h7.2l-7.68,32.4-2.31,4.76Z" transform="matrix(2.05586 0 0 2.05586 337.831 95.979264)" fill="#c7a181"/></svg>
