<svg id="eX4qkEJWebg1" xmlns="http://www.w3.org/2000/svg" xmlns:xlink="http://www.w3.org/1999/xlink" viewBox="0 0 289 100" shape-rendering="geometricPrecision" text-rendering="geometricPrecision"><path d="M-134.498,-29.57h-5.47q-1.01,0-1.01-.96v0-4.7q0-1.01,1.01-1.01v0h5.47q.43,0,.67.29t.24.72v0v4.7q0,.96-.91.96v0Zm.77,29.57h-7.1v-25.78h7.1v25.78Zm15.506.29v0q-2.35,0-4.35-.63-1.99-.62-3.43-2.08-1.44-1.47-2.23-3.99t-.79-6.36v0q0-3.93.72-6.53.72-2.59,2.13-4.1q1.42-1.51,3.48-2.14q2.07-.62,4.66-.62v0q2.35,0,4.49.26q2.13.27,4.49.94v0v4.08h-6.77q-2.21,0-3.55.65-1.35.65-1.95,2.4t-.6,5.01v0q0,3.22.6,4.9t1.97,2.26q1.37.57,3.62.57v0h7.06v4.03q-1.2.39-2.78.7-1.59.31-3.34.48t-3.43.17Zm24.33-.05v0q-4.27,0-6.81-1.13-2.55-1.13-3.67-4.01-1.13-2.88-1.13-7.96v0q0-5.24,1.05-8.12q1.06-2.88,3.56-4.03q2.49-1.15,6.76-1.15v0q3.84,0,6.15.77q2.3.77,3.33,2.69q1.04,1.92,1.04,5.42v0q0,2.59-1.04,4.1-1.03,1.52-2.9,2.16-1.87.65-4.42.65v0h-6.48q.1,1.97.6,3.15.51,1.17,1.88,1.68q1.36.5,3.96.5v0h7.53v4.18q-1.87.38-4.1.74t-5.31.36Zm-4.65-14.83v0h5.85q1.44,0,2.12-.58.67-.57.67-2.06v0q0-1.39-.43-2.23-.44-.84-1.35-1.2t-2.45-.36v0q-1.63,0-2.59.55t-1.39,1.94-.43,3.94ZM-70.516,0.29v0q-3.02,0-5.08-1.27-2.07-1.28-3.1-4.13-1.03-2.86-1.03-7.51v0q0-4.8.89-7.78.88-2.98,3-4.37q2.11-1.39,5.8-1.39v0q1.78,0,3.51.36t3.07.84v0-11.66h7.15v36.62h-6l-1.15-2.45q-.82.77-1.99,1.39-1.18.63-2.47.99-1.3.36-2.6.36Zm2.5-5.71v0q1.44,0,2.62-.48q1.17-.48,1.94-.96v0-12.96q-.96-.34-2.02-.68-1.05-.33-2.25-.33v0q-1.78,0-2.86.62-1.08.63-1.56,2.33t-.48,4.92v0q0,2.98.46,4.63.45,1.66,1.46,2.28q1.01.63,2.69.63Zm22.514,5.71v0q-2.93,0-4.75-1.73-1.83-1.73-1.83-4.8v0-2.3q0-2.93,2.07-4.83q2.06-1.89,6.43-1.89v0h6.57v-1.78q0-1.2-.43-1.99t-1.61-1.15q-1.17-.36-3.57-.36v0h-7.73v-4.13q1.87-.58,4.34-1.01q2.48-.43,5.98-.43v0q3.22,0,5.5.77q2.28.76,3.45,2.64q1.18,1.87,1.18,5.18v0v17.52h-5.62l-1.15-2.74q-.34.39-1.15.87-.82.48-1.99.98-1.18.51-2.64.84-1.47.34-3.05.34Zm3.6-4.95v0q.48,0,1.08-.12t1.25-.28q.64-.17,1.2-.34.55-.17.91-.31.36-.15.45-.19v0-6l-4.32.28q-1.87.15-2.76.96-.88.82-.88,2.21v0v1.06q0,.96.4,1.58.41.63,1.11.89.69.26,1.56.26Zm31.29,16.04h-5.9L-13.732,0q-2.16,0-3.79-.82-1.63-.81-2.71-2.32-1.08-1.52-1.66-3.77v0l-4.84-18.87h7.39l4.08,17.43q.24.91.62,1.44.39.53.82.74.43.22.79.29t.55.07v0l4.66-19.97h7.2l-7.68,32.4-2.31,4.76Z" transform="matrix(2.05586 0 0 2.05586 289.831031 75.285593)" fill="#c7a181"/></svg>
